<?xml version="1.0" encoding="utf-8"?>
<!-- Generator: $$$/GeneralStr/196=Adobe Illustrator 27.6.0, SVG Export Plug-In . SVG Version: 6.00 Build 0)  -->
<svg version="1.1" id="Calque_1" xmlns="http://www.w3.org/2000/svg" xmlns:xlink="http://www.w3.org/1999/xlink" x="0px" y="0px"
	 width="897px" height="713.5px" viewBox="0 0 897 713.5" style="enable-background:new 0 0 897 713.5;" xml:space="preserve">

<g id="Plumes">
	<path class="st0" fill="#00B686" d="M716.3,307.2l-51.5-33.8c-33-21.7-44.2-37.8-44.2-57.9c0-28.9,24.1-43.4,72.4-43.4c23.3,0,53.9,3.2,86.8,8
		L780,245l117-120L779.8,0v61.2c-33-4.8-62.7-8-90.8-8c-126.2,0-201.8,62.7-201.8,166.4c0,63.5,30.5,115,90,155.1l61.1,41
		c40.2,26.5,50.7,45,50.7,67.5c0,35.4-25.7,50.6-85.2,50.6c-1.5,0-3.9,0-7.1,0L583.7,480c-0.1-0.3-0.3-0.5-0.6-0.5l0,0h-14.6
		c-0.2,0-0.5,0.2-0.6,0.4l-4.1,10.6c-0.2,0.4-0.8,0.5-1,0.2l-8.3-10.9c-0.1-0.1-0.3-0.2-0.5-0.2h-45.5c-0.3,0-0.6,0.3-0.6,0.7
		l3.2,29.5c0.1,0.6-0.8,0.9-1.1,0.4l-17.4-30.2c-0.1-0.2-0.3-0.3-0.5-0.3h-11.3c-0.3,0-0.5,0.2-0.6,0.5l-10.9,53.4
		c-22.8-0.1-43.5-0.2-57-0.3c3.8-14.3,5.7-29.7,5.7-45.9c0-65.9-32.2-114.2-90-135.9c45-23.3,69.9-66.7,69.9-123.8
		c0-98.9-77.2-158.4-203.4-158.4H0v591.7h158.3L158,661c0,0,179.4,0,311.6-0.1l10.7,52.1c0,0.3,0.3,0.5,0.6,0.5h11.3
		c0.2,0,0.4-0.1,0.5-0.3l17.4-30.2c0.3-0.6,1.2-0.3,1.1,0.4l-3.2,29.5c0,0.3,0.2,0.7,0.6,0.7h45.5c0.2,0,0.4-0.1,0.5-0.2l8.3-10.9
		c0.3-0.4,0.9-0.3,1,0.2l4.1,10.6c0.1,0.2,0.3,0.4,0.6,0.4h14.6c0.3,0,0.5-0.2,0.6-0.5l12.5-52.2H607c138.3,0,217-65.1,217-179.3
		C824,410.1,791,356.2,716.3,307.2z M133.4,186.5h72.4c39.4,0,62.7,21.7,62.7,57.1s-23.3,57.1-62.7,57.1h-72.4V186.5z M213,543.5
		h-79.6v-127H213c44.2,0,69.9,23.3,69.9,63.5C283,520.2,257.2,543.5,213,543.5z"/>
</g>
</svg>
